<svg xmlns="http://www.w3.org/2000/svg" xmlns:xlink="http://www.w3.org/1999/xlink" version="1.1" width="256" height="256" viewBox="0 0 256 256" xml:space="preserve">

<defs>
</defs>
<g style="stroke: none; stroke-width: 0; stroke-dasharray: none; stroke-linecap: butt; stroke-linejoin: miter; stroke-miterlimit: 10; fill: none; fill-rule: nonzero; opacity: 1;" transform="translate(1.4065934065934016 1.4065934065934016) scale(2.81 2.81)" >
	<circle cx="45" cy="45" r="44" style="stroke: none; stroke-width: 1; stroke-dasharray: none; stroke-linecap: butt; stroke-linejoin: miter; stroke-miterlimit: 10; fill: #e9e9e9; fill-rule: nonzero; opacity: 1;" transform="  matrix(1 0 0 1 0 0) "/>
	<path d="M 45 90 C 20.187 90 0 69.813 0 45 C 0 20.187 20.187 0 45 0 c 24.813 0 45 20.187 45 45 C 90 69.813 69.813 90 45 90 z M 45 2 C 21.29 2 2 21.29 2 45 c 0 23.71 19.29 43 43 43 c 23.71 0 43 -19.29 43 -43 C 88 21.29 68.71 2 45 2 z" style="stroke: none; stroke-width: 1; stroke-dasharray: none; stroke-linecap: butt; stroke-linejoin: miter; stroke-miterlimit: 10; fill: rgb(0,0,0); fill-rule: nonzero; opacity: 1;" transform=" matrix(1 0 0 1 0 0) " stroke-linecap="round" />
	<path d="M 19.601 47.5 c -0.552 0 -1 -0.447 -1 -1 v -6.319 l -4.517 -6.085 c -0.33 -0.444 -0.237 -1.07 0.207 -1.399 c 0.445 -0.33 1.071 -0.236 1.399 0.207 l 4.714 6.351 c 0.128 0.172 0.197 0.381 0.197 0.596 V 46.5 C 20.601 47.053 20.153 47.5 19.601 47.5 z" style="stroke: none; stroke-width: 1; stroke-dasharray: none; stroke-linecap: butt; stroke-linejoin: miter; stroke-miterlimit: 10; fill: rgb(0,0,0); fill-rule: nonzero; opacity: 1;" transform=" matrix(1 0 0 1 0 0) " stroke-linecap="round" />
	<path d="M 19.6 40.851 c -0.207 0 -0.416 -0.064 -0.595 -0.197 c -0.443 -0.33 -0.536 -0.956 -0.207 -1.399 l 4.713 -6.351 c 0.33 -0.443 0.957 -0.536 1.399 -0.207 c 0.443 0.33 0.536 0.956 0.207 1.399 l -4.713 6.351 C 20.208 40.711 19.905 40.851 19.6 40.851 z" style="stroke: none; stroke-width: 1; stroke-dasharray: none; stroke-linecap: butt; stroke-linejoin: miter; stroke-miterlimit: 10; fill: rgb(0,0,0); fill-rule: nonzero; opacity: 1;" transform=" matrix(1 0 0 1 0 0) " stroke-linecap="round" />
	<path d="M 36.24 47.5 h -6.576 c -0.552 0 -1 -0.447 -1 -1 v -13 c 0 -0.552 0.448 -1 1 -1 h 6.576 c 0.552 0 1 0.448 1 1 s -0.448 1 -1 1 h -5.576 v 11 h 5.576 c 0.552 0 1 0.448 1 1 C 37.24 47.053 36.792 47.5 36.24 47.5 z" style="stroke: none; stroke-width: 1; stroke-dasharray: none; stroke-linecap: butt; stroke-linejoin: miter; stroke-miterlimit: 10; fill: rgb(0,0,0); fill-rule: nonzero; opacity: 1;" transform=" matrix(1 0 0 1 0 0) " stroke-linecap="round" />
	<path d="M 34.247 41 h -4.583 c -0.552 0 -1 -0.448 -1 -1 s 0.448 -1 1 -1 h 4.583 c 0.552 0 1 0.448 1 1 S 34.799 41 34.247 41 z" style="stroke: none; stroke-width: 1; stroke-dasharray: none; stroke-linecap: butt; stroke-linejoin: miter; stroke-miterlimit: 10; fill: rgb(0,0,0); fill-rule: nonzero; opacity: 1;" transform=" matrix(1 0 0 1 0 0) " stroke-linecap="round" />
	<path d="M 49.778 47.5 c -0.553 0 -1 -0.447 -1 -1 V 36.303 c 0 -0.994 -0.81 -1.803 -1.804 -1.803 h -2.463 c -0.994 0 -1.803 0.809 -1.803 1.803 V 46.5 c 0 0.553 -0.448 1 -1 1 s -1 -0.447 -1 -1 V 36.303 c 0 -2.097 1.706 -3.803 3.803 -3.803 h 2.463 c 2.098 0 3.804 1.706 3.804 3.803 V 46.5 C 50.778 47.053 50.331 47.5 49.778 47.5 z" style="stroke: none; stroke-width: 1; stroke-dasharray: none; stroke-linecap: butt; stroke-linejoin: miter; stroke-miterlimit: 10; fill: rgb(0,0,0); fill-rule: nonzero; opacity: 1;" transform=" matrix(1 0 0 1 0 0) " stroke-linecap="round" />
	<path d="M 49.778 41 h -8.069 c -0.552 0 -1 -0.448 -1 -1 s 0.448 -1 1 -1 h 8.069 c 0.553 0 1 0.448 1 1 S 50.331 41 49.778 41 z" style="stroke: none; stroke-width: 1; stroke-dasharray: none; stroke-linecap: butt; stroke-linejoin: miter; stroke-miterlimit: 10; fill: rgb(0,0,0); fill-rule: nonzero; opacity: 1;" transform=" matrix(1 0 0 1 0 0) " stroke-linecap="round" />
	<path d="M 60.435 41 H 55.96 c -0.553 0 -1 -0.448 -1 -1 v -6.5 c 0 -0.552 0.447 -1 1 -1 h 4.475 c 1.922 0 3.485 1.563 3.485 3.485 v 1.529 C 63.92 39.437 62.356 41 60.435 41 z M 56.96 39 h 3.475 c 0.819 0 1.485 -0.667 1.485 -1.485 v -1.529 c 0 -0.819 -0.666 -1.485 -1.485 -1.485 H 56.96 V 39 z" style="stroke: none; stroke-width: 1; stroke-dasharray: none; stroke-linecap: butt; stroke-linejoin: miter; stroke-miterlimit: 10; fill: rgb(0,0,0); fill-rule: nonzero; opacity: 1;" transform=" matrix(1 0 0 1 0 0) " stroke-linecap="round" />
	<path d="M 62.92 47.5 c -0.553 0 -1 -0.447 -1 -1 v -4.015 c 0 -0.819 -0.666 -1.485 -1.485 -1.485 H 56.96 v 5.5 c 0 0.553 -0.447 1 -1 1 s -1 -0.447 -1 -1 V 40 c 0 -0.552 0.447 -1 1 -1 h 4.475 c 1.922 0 3.485 1.563 3.485 3.485 V 46.5 C 63.92 47.053 63.473 47.5 62.92 47.5 z" style="stroke: none; stroke-width: 1; stroke-dasharray: none; stroke-linecap: butt; stroke-linejoin: miter; stroke-miterlimit: 10; fill: rgb(0,0,0); fill-rule: nonzero; opacity: 1;" transform=" matrix(1 0 0 1 0 0) " stroke-linecap="round" />
	<path d="M 72.348 47.5 h -1.206 c -1.999 0 -3.626 -1.582 -3.626 -3.525 c 0 -0.552 0.447 -1 1 -1 s 1 0.448 1 1 c 0 0.841 0.729 1.525 1.626 1.525 h 1.206 c 0.974 0 1.766 -0.745 1.766 -1.66 V 42.66 c 0 -0.915 -0.792 -1.66 -1.766 -1.66 h -1.066 c -2.076 0 -3.766 -1.642 -3.766 -3.66 V 36.16 c 0 -2.018 1.689 -3.66 3.766 -3.66 h 1.206 c 1.999 0 3.626 1.582 3.626 3.525 c 0 0.552 -0.447 1 -1 1 s -1 -0.448 -1 -1 c 0 -0.841 -0.729 -1.525 -1.626 -1.525 h -1.206 c -0.974 0 -1.766 0.745 -1.766 1.66 v 1.181 c 0 0.915 0.792 1.66 1.766 1.66 h 1.066 c 2.076 0 3.766 1.642 3.766 3.66 v 1.181 C 76.113 45.858 74.424 47.5 72.348 47.5 z" style="stroke: none; stroke-width: 1; stroke-dasharray: none; stroke-linecap: butt; stroke-linejoin: miter; stroke-miterlimit: 10; fill: rgb(0,0,0); fill-rule: nonzero; opacity: 1;" transform=" matrix(1 0 0 1 0 0) " stroke-linecap="round" />
	<path d="M 45.396 20 h -2.438 c -0.552 0 -1 -0.448 -1 -1 s 0.448 -1 1 -1 h 2.438 c 1.24 0 2.25 -1.009 2.25 -2.25 s -1.01 -2.25 -2.25 -2.25 h -4.043 c -0.552 0 -1 -0.448 -1 -1 s 0.448 -1 1 -1 h 4.043 c 2.344 0 4.25 1.907 4.25 4.25 S 47.74 20 45.396 20 z" style="stroke: none; stroke-width: 1; stroke-dasharray: none; stroke-linecap: butt; stroke-linejoin: miter; stroke-miterlimit: 10; fill: rgb(0,0,0); fill-rule: nonzero; opacity: 1;" transform=" matrix(1 0 0 1 0 0) " stroke-linecap="round" />
	<path d="M 45.396 26.5 h -4.043 c -0.552 0 -1 -0.448 -1 -1 s 0.448 -1 1 -1 h 4.043 c 1.24 0 2.25 -1.009 2.25 -2.25 S 46.637 20 45.396 20 h -2.438 c -0.552 0 -1 -0.448 -1 -1 s 0.448 -1 1 -1 h 2.438 c 2.344 0 4.25 1.907 4.25 4.25 S 47.74 26.5 45.396 26.5 z" style="stroke: none; stroke-width: 1; stroke-dasharray: none; stroke-linecap: butt; stroke-linejoin: miter; stroke-miterlimit: 10; fill: rgb(0,0,0); fill-rule: nonzero; opacity: 1;" transform=" matrix(1 0 0 1 0 0) " stroke-linecap="round" />
	<path d="M 35.127 57.655 L 35.127 57.655 l 0 9.217 c 0 6.195 4.181 11.411 9.873 12.989 c 5.693 -1.578 9.873 -6.794 9.873 -12.989 v -9.217 h 0 h 0 C 50.57 57.701 47.278 56.052 45 52.71 C 42.722 56.052 39.43 57.701 35.127 57.655" style="stroke: none; stroke-width: 1; stroke-dasharray: none; stroke-linecap: butt; stroke-linejoin: miter; stroke-miterlimit: 10; fill: #f2cb32; fill-rule: nonzero; opacity: 1;" transform=" matrix(1 0 0 1 0 0) " stroke-linecap="round" />
	<path d="M 45 80.86 c -0.09 0 -0.18 -0.012 -0.267 -0.036 c -6.245 -1.731 -10.606 -7.469 -10.606 -13.952 v -9.217 c 0 -0.267 0.107 -0.523 0.297 -0.711 c 0.189 -0.188 0.444 -0.292 0.714 -0.289 c 4.02 0.072 6.94 -1.433 9.037 -4.509 c 0.372 -0.547 1.28 -0.547 1.652 0 c 2.067 3.033 4.971 4.51 8.869 4.51 c 0.06 0 0.114 0.001 0.178 -0.001 c 0.264 0 0.516 0.104 0.703 0.289 c 0.19 0.188 0.297 0.444 0.297 0.711 v 9.217 c 0 6.483 -4.361 12.221 -10.606 13.952 C 45.18 80.849 45.09 80.86 45 80.86 z M 36.126 58.636 v 8.236 c 0 5.495 3.635 10.368 8.874 11.947 c 5.238 -1.579 8.873 -6.452 8.873 -11.947 v -8.236 c -3.677 -0.185 -6.652 -1.616 -8.873 -4.269 C 42.78 57.02 39.803 58.451 36.126 58.636 z" style="stroke: none; stroke-width: 1; stroke-dasharray: none; stroke-linecap: butt; stroke-linejoin: miter; stroke-miterlimit: 10; fill: rgb(0,0,0); fill-rule: nonzero; opacity: 1;" transform=" matrix(1 0 0 1 0 0) " stroke-linecap="round" />
	<path d="M 68.728 68.752 h -8.135 c -0.553 0 -1 -0.447 -1 -1 s 0.447 -1 1 -1 h 8.135 c 0.553 0 1 0.447 1 1 S 69.28 68.752 68.728 68.752 z" style="stroke: none; stroke-width: 1; stroke-dasharray: none; stroke-linecap: butt; stroke-linejoin: miter; stroke-miterlimit: 10; fill: rgb(0,0,0); fill-rule: nonzero; opacity: 1;" transform=" matrix(1 0 0 1 0 0) " stroke-linecap="round" />
	<path d="M 28.728 68.752 h -8.135 c -0.552 0 -1 -0.447 -1 -1 s 0.448 -1 1 -1 h 8.135 c 0.552 0 1 0.447 1 1 S 29.28 68.752 28.728 68.752 z" style="stroke: none; stroke-width: 1; stroke-dasharray: none; stroke-linecap: butt; stroke-linejoin: miter; stroke-miterlimit: 10; fill: rgb(0,0,0); fill-rule: nonzero; opacity: 1;" transform=" matrix(1 0 0 1 0 0) " stroke-linecap="round" />
</g>
</svg>