<svg xmlns="http://www.w3.org/2000/svg" xmlns:xlink="http://www.w3.org/1999/xlink" version="1.1" width="256" height="256" viewBox="0 0 256 256" xml:space="preserve">

<defs>
</defs>
<g style="stroke: none; stroke-width: 0; stroke-dasharray: none; stroke-linecap: butt; stroke-linejoin: miter; stroke-miterlimit: 10; fill: none; fill-rule: nonzero; opacity: 1;" transform="translate(1.4065934065934016 1.4065934065934016) scale(2.81 2.81)" >
	<circle cx="45" cy="45" r="44" style="stroke: none; stroke-width: 1; stroke-dasharray: none; stroke-linecap: butt; stroke-linejoin: miter; stroke-miterlimit: 10; fill: rgb(220,244,219); fill-rule: nonzero; opacity: 1;" transform="  matrix(1 0 0 1 0 0) "/>
	<path d="M 45 90 C 20.187 90 0 69.813 0 45 C 0 20.187 20.187 0 45 0 c 24.813 0 45 20.187 45 45 C 90 69.813 69.813 90 45 90 z M 45 2 C 21.29 2 2 21.29 2 45 c 0 23.71 19.29 43 43 43 c 23.71 0 43 -19.29 43 -43 C 88 21.29 68.71 2 45 2 z" style="stroke: none; stroke-width: 1; stroke-dasharray: none; stroke-linecap: butt; stroke-linejoin: miter; stroke-miterlimit: 10; fill: rgb(0,0,0); fill-rule: nonzero; opacity: 1;" transform=" matrix(1 0 0 1 0 0) " stroke-linecap="round" />
	<path d="M 36.271 26.376 c -0.339 0 -0.664 -0.173 -0.85 -0.473 l -4.469 -7.199 v 6.672 c 0 0.552 -0.448 1 -1 1 s -1 -0.448 -1 -1 V 15.197 c 0 -0.447 0.296 -0.839 0.726 -0.962 c 0.431 -0.124 0.888 0.055 1.124 0.435 l 4.469 7.199 v -6.672 c 0 -0.552 0.448 -1 1 -1 s 1 0.448 1 1 v 10.179 c 0 0.447 -0.296 0.839 -0.726 0.962 C 36.454 26.364 36.362 26.376 36.271 26.376 z" style="stroke: none; stroke-width: 1; stroke-dasharray: none; stroke-linecap: butt; stroke-linejoin: miter; stroke-miterlimit: 10; fill: rgb(0,0,0); fill-rule: nonzero; opacity: 1;" transform=" matrix(1 0 0 1 0 0) " stroke-linecap="round" />
	<path d="M 45.334 26.376 h -4.513 c -0.552 0 -1 -0.448 -1 -1 V 15.197 c 0 -0.552 0.448 -1 1 -1 h 4.513 c 0.552 0 1 0.448 1 1 s -0.448 1 -1 1 h -3.513 v 8.179 h 3.513 c 0.552 0 1 0.448 1 1 S 45.887 26.376 45.334 26.376 z" style="stroke: none; stroke-width: 1; stroke-dasharray: none; stroke-linecap: butt; stroke-linejoin: miter; stroke-miterlimit: 10; fill: rgb(0,0,0); fill-rule: nonzero; opacity: 1;" transform=" matrix(1 0 0 1 0 0) " stroke-linecap="round" />
	<path d="M 43.773 21.287 h -2.952 c -0.552 0 -1 -0.448 -1 -1 s 0.448 -1 1 -1 h 2.952 c 0.552 0 1 0.448 1 1 S 44.326 21.287 43.773 21.287 z" style="stroke: none; stroke-width: 1; stroke-dasharray: none; stroke-linecap: butt; stroke-linejoin: miter; stroke-miterlimit: 10; fill: rgb(0,0,0); fill-rule: nonzero; opacity: 1;" transform=" matrix(1 0 0 1 0 0) " stroke-linecap="round" />
	<path d="M 51.526 26.376 c -0.022 0 -0.045 -0.001 -0.067 -0.002 c -0.429 -0.029 -0.791 -0.328 -0.899 -0.744 l -2.671 -10.179 c -0.141 -0.534 0.179 -1.081 0.713 -1.221 c 0.535 -0.141 1.081 0.179 1.221 0.713 l 1.915 7.297 l 1.79 -4.343 c 0.154 -0.375 0.52 -0.619 0.925 -0.619 l 0 0 c 0.405 0 0.771 0.245 0.925 0.619 l 1.789 4.342 l 1.915 -7.297 c 0.139 -0.535 0.688 -0.854 1.221 -0.713 c 0.534 0.14 0.854 0.687 0.713 1.221 L 58.344 25.63 c -0.108 0.416 -0.471 0.715 -0.899 0.744 c -0.426 0.034 -0.828 -0.219 -0.992 -0.617 l -2 -4.854 l -2.001 4.854 C 52.296 26.134 51.93 26.376 51.526 26.376 z" style="stroke: none; stroke-width: 1; stroke-dasharray: none; stroke-linecap: butt; stroke-linejoin: miter; stroke-miterlimit: 10; fill: rgb(0,0,0); fill-rule: nonzero; opacity: 1;" transform=" matrix(1 0 0 1 0 0) " stroke-linecap="round" />
	<path d="M 29.953 42.825 c -0.552 0 -1 -0.448 -1 -1 V 31.646 c 0 -0.552 0.448 -1 1 -1 s 1 0.448 1 1 v 10.179 C 30.953 42.377 30.505 42.825 29.953 42.825 z" style="stroke: none; stroke-width: 1; stroke-dasharray: none; stroke-linecap: butt; stroke-linejoin: miter; stroke-miterlimit: 10; fill: rgb(0,0,0); fill-rule: nonzero; opacity: 1;" transform=" matrix(1 0 0 1 0 0) " stroke-linecap="round" />
	<path d="M 40.26 32.646 h -6.421 c -0.552 0 -1 -0.448 -1 -1 s 0.448 -1 1 -1 h 6.421 c 0.552 0 1 0.448 1 1 S 40.812 32.646 40.26 32.646 z" style="stroke: none; stroke-width: 1; stroke-dasharray: none; stroke-linecap: butt; stroke-linejoin: miter; stroke-miterlimit: 10; fill: rgb(0,0,0); fill-rule: nonzero; opacity: 1;" transform=" matrix(1 0 0 1 0 0) " stroke-linecap="round" />
	<path d="M 37.049 42.825 c -0.552 0 -1 -0.448 -1 -1 V 31.646 c 0 -0.552 0.448 -1 1 -1 s 1 0.448 1 1 v 10.179 C 38.049 42.377 37.601 42.825 37.049 42.825 z" style="stroke: none; stroke-width: 1; stroke-dasharray: none; stroke-linecap: butt; stroke-linejoin: miter; stroke-miterlimit: 10; fill: rgb(0,0,0); fill-rule: nonzero; opacity: 1;" transform=" matrix(1 0 0 1 0 0) " stroke-linecap="round" />
	<path d="M 48.192 42.825 H 43.68 c -0.552 0 -1 -0.448 -1 -1 V 31.646 c 0 -0.552 0.448 -1 1 -1 h 4.513 c 0.553 0 1 0.448 1 1 s -0.447 1 -1 1 H 44.68 v 8.179 h 3.513 c 0.553 0 1 0.448 1 1 S 48.745 42.825 48.192 42.825 z" style="stroke: none; stroke-width: 1; stroke-dasharray: none; stroke-linecap: butt; stroke-linejoin: miter; stroke-miterlimit: 10; fill: rgb(0,0,0); fill-rule: nonzero; opacity: 1;" transform=" matrix(1 0 0 1 0 0) " stroke-linecap="round" />
	<path d="M 46.632 37.735 H 43.68 c -0.552 0 -1 -0.448 -1 -1 s 0.448 -1 1 -1 h 2.952 c 0.553 0 1 0.448 1 1 S 47.185 37.735 46.632 37.735 z" style="stroke: none; stroke-width: 1; stroke-dasharray: none; stroke-linecap: butt; stroke-linejoin: miter; stroke-miterlimit: 10; fill: rgb(0,0,0); fill-rule: nonzero; opacity: 1;" transform=" matrix(1 0 0 1 0 0) " stroke-linecap="round" />
	<path d="M 60.047 42.825 c -0.553 0 -1 -0.448 -1 -1 v -7.076 l -1.849 2.57 c -0.374 0.522 -1.247 0.523 -1.623 0 l -1.85 -2.571 v 7.077 c 0 0.552 -0.447 1 -1 1 s -1 -0.448 -1 -1 V 31.646 c 0 -0.434 0.28 -0.819 0.693 -0.952 c 0.41 -0.132 0.865 0.015 1.118 0.368 l 2.85 3.961 l 2.849 -3.961 c 0.254 -0.353 0.71 -0.5 1.118 -0.368 c 0.413 0.133 0.693 0.518 0.693 0.952 v 10.179 C 61.047 42.377 60.6 42.825 60.047 42.825 z" style="stroke: none; stroke-width: 1; stroke-dasharray: none; stroke-linecap: butt; stroke-linejoin: miter; stroke-miterlimit: 10; fill: rgb(0,0,0); fill-rule: nonzero; opacity: 1;" transform=" matrix(1 0 0 1 0 0) " stroke-linecap="round" />
	<polygon points="60.05,49.81 60.05,78.54 45,69.74 29.95,78.54 29.95,49.81 " style="stroke: none; stroke-width: 1; stroke-dasharray: none; stroke-linecap: butt; stroke-linejoin: miter; stroke-miterlimit: 10; fill: rgb(242,73,170); fill-rule: nonzero; opacity: 1;" transform="  matrix(1 0 0 1 0 0) "/>
	<path d="M 60.048 79.538 c -0.175 0 -0.349 -0.046 -0.505 -0.137 L 45 70.902 l -14.543 8.499 c -0.31 0.18 -0.692 0.184 -1.002 0.004 c -0.311 -0.178 -0.502 -0.509 -0.502 -0.867 v -28.73 c 0 -0.553 0.448 -1 1 -1 h 30.096 c 0.553 0 1 0.447 1 1 v 28.73 c 0 0.358 -0.191 0.689 -0.502 0.867 C 60.392 79.494 60.22 79.538 60.048 79.538 z M 45 68.744 c 0.174 0 0.349 0.046 0.504 0.137 l 13.543 7.915 V 50.808 H 30.952 v 25.988 l 13.543 -7.915 C 44.651 68.79 44.826 68.744 45 68.744 z" style="stroke: none; stroke-width: 1; stroke-dasharray: none; stroke-linecap: butt; stroke-linejoin: miter; stroke-miterlimit: 10; fill: rgb(0,0,0); fill-rule: nonzero; opacity: 1;" transform=" matrix(1 0 0 1 0 0) " stroke-linecap="round" />
</g>
</svg>