<svg xmlns="http://www.w3.org/2000/svg" xmlns:xlink="http://www.w3.org/1999/xlink" version="1.1" width="256" height="256" viewBox="0 0 256 256" xml:space="preserve">

<defs>
</defs>
<g style="stroke: none; stroke-width: 0; stroke-dasharray: none; stroke-linecap: butt; stroke-linejoin: miter; stroke-miterlimit: 10; fill: none; fill-rule: nonzero; opacity: 1;" transform="translate(1.4065934065934016 1.4065934065934016) scale(2.81 2.81)" >
	<path d="M 45 0 C 28.967 0 14.902 8.392 6.932 21.015 c 2.729 1.97 6.069 3.145 9.693 3.145 h 32.399 c 17.08 0 32.123 8.704 40.948 21.915 C 89.981 45.716 90 45.36 90 45 C 90 20.147 69.853 0 45 0 z" style="stroke: none; stroke-width: 1; stroke-dasharray: none; stroke-linecap: butt; stroke-linejoin: miter; stroke-miterlimit: 10; fill: rgb(81,129,184); fill-rule: nonzero; opacity: 1;" transform=" matrix(1 0 0 1 0 0) " stroke-linecap="round" />
	<path d="M 90 45 c 0 -1.207 -0.062 -2.399 -0.155 -3.583 C 81.002 27.735 66.02 20.885 49.024 20.885 H 16.625 c -3.159 0 -6.101 -0.494 -8.614 -1.504 C 3.387 26.046 0.51 34.014 0.063 42.629 c 9.023 11.127 22.794 18.247 38.236 18.247 h 0.744 c 9.038 0 13.101 3.942 13.329 12.925 c 0.004 -0.143 0.022 -0.282 0.022 -0.426 c 0 8.417 -3.516 15.355 -11.172 16.456 C 42.469 89.934 43.726 90 45 90 C 69.853 90 90 69.853 90 45 z" style="stroke: none; stroke-width: 1; stroke-dasharray: none; stroke-linecap: butt; stroke-linejoin: miter; stroke-miterlimit: 10; fill: rgb(75,118,167); fill-rule: nonzero; opacity: 1;" transform=" matrix(1 0 0 1 0 0) " stroke-linecap="round" />
	<path d="M 41.27 89.834 c 7.988 -1.072 14.169 -7.802 14.378 -16.034 c -0.228 -8.983 -7.566 -16.2 -16.604 -16.2 h -0.744 c -15.296 0 -28.947 -6.992 -37.973 -17.938 C 0.119 41.414 0 43.193 0 45 C 0 68.595 18.164 87.936 41.27 89.834 z" style="stroke: none; stroke-width: 1; stroke-dasharray: none; stroke-linecap: butt; stroke-linejoin: miter; stroke-miterlimit: 10; fill: rgb(70,109,153); fill-rule: nonzero; opacity: 1;" transform=" matrix(1 0 0 1 0 0) " stroke-linecap="round" />
	<path d="M 71.238 30.879 c 0.382 -1.275 0 -2.211 -1.82 -2.211 H 63.4 c -1.53 0 -2.235 0.81 -2.618 1.702 c 0 0 -3.06 7.458 -7.395 12.303 c -1.403 1.403 -2.04 1.848 -2.805 1.848 c -0.382 0 -0.936 -0.447 -0.936 -1.721 v -11.92 c 0 -1.53 -0.444 -2.211 -1.719 -2.211 h -9.454 c -0.956 0 -1.531 0.71 -1.531 1.383 c 0 1.45 2.167 1.785 2.39 5.864 v 8.861 c 0 1.943 -0.351 2.295 -1.116 2.295 c -2.04 0 -7.001 -7.492 -9.944 -16.064 c -0.577 -1.666 -1.155 -2.339 -2.693 -2.339 h -6.017 c -1.719 0 -2.063 0.81 -2.063 1.702 c 0 1.594 2.04 9.498 9.498 19.952 c 4.972 7.14 11.977 11.01 18.352 11.01 c 3.824 0 4.298 -0.86 4.298 -2.34 v -5.396 c 0 -1.719 0.362 -2.062 1.573 -2.062 c 0.892 0 2.422 0.447 5.992 3.888 c 4.08 4.08 4.752 5.91 7.047 5.91 h 6.017 c 1.719 0 2.579 -0.86 2.083 -2.556 c -0.543 -1.691 -2.49 -4.143 -5.075 -7.052 c -1.403 -1.658 -3.506 -3.442 -4.143 -4.335 c -0.892 -1.147 -0.637 -1.658 0 -2.677 C 63.143 44.712 70.473 34.385 71.238 30.879 z" style="stroke: none; stroke-width: 1; stroke-dasharray: none; stroke-linecap: butt; stroke-linejoin: miter; stroke-miterlimit: 10; fill: rgb(255,255,255); fill-rule: nonzero; opacity: 1;" transform=" matrix(1 0 0 1 0 0) " stroke-linecap="round" />
</g>
</svg>