<svg xmlns="http://www.w3.org/2000/svg" xmlns:xlink="http://www.w3.org/1999/xlink" version="1.1" width="256" height="256" viewBox="0 0 256 256" xml:space="preserve">

<defs>
</defs>
<g style="stroke: none; stroke-width: 0; stroke-dasharray: none; stroke-linecap: butt; stroke-linejoin: miter; stroke-miterlimit: 10; fill: none; fill-rule: nonzero; opacity: 1;" transform="translate(1.4065934065934016 1.4065934065934016) scale(2.81 2.81)" >
	<path d="M 32.613 0 H 7.267 C 3.26 0 0 3.26 0 7.267 v 25.346 c 0 4.007 3.26 7.267 7.267 7.267 h 25.346 c 4.007 0 7.267 -3.26 7.267 -7.267 V 7.267 C 39.88 3.26 36.62 0 32.613 0 z" style="stroke: none; stroke-width: 1; stroke-dasharray: none; stroke-linecap: butt; stroke-linejoin: miter; stroke-miterlimit: 10; fill: rgb(0,0,0); fill-rule: nonzero; opacity: 1;" transform=" matrix(1 0 0 1 0 0) " stroke-linecap="round" />
	<path d="M 82.733 0 H 57.387 C 53.38 0 50.12 3.26 50.12 7.267 v 25.346 c 0 4.007 3.26 7.267 7.267 7.267 h 25.347 c 4.007 0 7.267 -3.26 7.267 -7.267 V 7.267 C 90 3.26 86.74 0 82.733 0 z" style="stroke: none; stroke-width: 1; stroke-dasharray: none; stroke-linecap: butt; stroke-linejoin: miter; stroke-miterlimit: 10; fill: rgb(0,0,0); fill-rule: nonzero; opacity: 1;" transform=" matrix(1 0 0 1 0 0) " stroke-linecap="round" />
	<path d="M 32.613 50.12 H 7.267 C 3.26 50.12 0 53.38 0 57.387 v 25.347 C 0 86.74 3.26 90 7.267 90 h 25.346 c 4.007 0 7.267 -3.26 7.267 -7.267 V 57.387 C 39.88 53.38 36.62 50.12 32.613 50.12 z" style="stroke: none; stroke-width: 1; stroke-dasharray: none; stroke-linecap: butt; stroke-linejoin: miter; stroke-miterlimit: 10; fill: rgb(0,0,0); fill-rule: nonzero; opacity: 1;" transform=" matrix(1 0 0 1 0 0) " stroke-linecap="round" />
	<path d="M 82.733 50.12 H 57.387 c -4.007 0 -7.267 3.26 -7.267 7.267 v 25.347 c 0 4.007 3.26 7.267 7.267 7.267 h 25.347 C 86.74 90 90 86.74 90 82.733 V 57.387 C 90 53.38 86.74 50.12 82.733 50.12 z" style="stroke: none; stroke-width: 1; stroke-dasharray: none; stroke-linecap: butt; stroke-linejoin: miter; stroke-miterlimit: 10; fill: rgb(0,0,0); fill-rule: nonzero; opacity: 1;" transform=" matrix(1 0 0 1 0 0) " stroke-linecap="round" />
</g>
</svg>