<svg xmlns="http://www.w3.org/2000/svg" xmlns:xlink="http://www.w3.org/1999/xlink" version="1.1" width="256" height="256" viewBox="0 0 256 256" xml:space="preserve">

<defs>
</defs>
<g style="stroke: none; stroke-width: 0; stroke-dasharray: none; stroke-linecap: butt; stroke-linejoin: miter; stroke-miterlimit: 10; fill: none; fill-rule: nonzero; opacity: 1;" transform="translate(1.4065934065934016 1.4065934065934016) scale(2.81 2.81)" >
	<circle cx="45" cy="45" r="44" style="stroke: none; stroke-width: 1; stroke-dasharray: none; stroke-linecap: butt; stroke-linejoin: miter; stroke-miterlimit: 10; fill: #e9e9e9; fill-rule: nonzero; opacity: 1;" transform="  matrix(1 0 0 1 0 0) "/>
	<path d="M 45 90 C 20.187 90 0 69.813 0 45 C 0 20.187 20.187 0 45 0 c 24.813 0 45 20.187 45 45 C 90 69.813 69.813 90 45 90 z M 45 2 C 21.29 2 2 21.29 2 45 c 0 23.71 19.29 43 43 43 c 23.71 0 43 -19.29 43 -43 C 88 21.29 68.71 2 45 2 z" style="stroke: none; stroke-width: 1; stroke-dasharray: none; stroke-linecap: butt; stroke-linejoin: miter; stroke-miterlimit: 10; fill: rgb(0,0,0); fill-rule: nonzero; opacity: 1;" transform=" matrix(1 0 0 1 0 0) " stroke-linecap="round" />
	<path d="M 30.481 69.973 c -0.339 0 -0.664 -0.174 -0.85 -0.473 l -8.03 -12.937 v 12.409 c 0 0.553 -0.448 1 -1 1 s -1 -0.447 -1 -1 V 53.056 c 0 -0.446 0.296 -0.839 0.726 -0.962 c 0.431 -0.12 0.888 0.055 1.124 0.435 l 8.03 12.937 V 53.056 c 0 -0.553 0.448 -1 1 -1 s 1 0.447 1 1 v 15.917 c 0 0.446 -0.296 0.839 -0.726 0.962 C 30.665 69.96 30.573 69.973 30.481 69.973 z" style="stroke: none; stroke-width: 1; stroke-dasharray: none; stroke-linecap: butt; stroke-linejoin: miter; stroke-miterlimit: 10; fill: rgb(0,0,0); fill-rule: nonzero; opacity: 1;" transform=" matrix(1 0 0 1 0 0) " stroke-linecap="round" />
	<path d="M 45.466 69.973 H 38.41 c -0.552 0 -1 -0.447 -1 -1 V 53.056 c 0 -0.553 0.448 -1 1 -1 h 7.056 c 0.553 0 1 0.447 1 1 s -0.447 1 -1 1 H 39.41 v 13.917 h 6.056 c 0.553 0 1 0.447 1 1 S 46.019 69.973 45.466 69.973 z" style="stroke: none; stroke-width: 1; stroke-dasharray: none; stroke-linecap: butt; stroke-linejoin: miter; stroke-miterlimit: 10; fill: rgb(0,0,0); fill-rule: nonzero; opacity: 1;" transform=" matrix(1 0 0 1 0 0) " stroke-linecap="round" />
	<path d="M 43.025 62.014 H 38.41 c -0.552 0 -1 -0.447 -1 -1 s 0.448 -1 1 -1 h 4.615 c 0.552 0 1 0.447 1 1 S 43.577 62.014 43.025 62.014 z" style="stroke: none; stroke-width: 1; stroke-dasharray: none; stroke-linecap: butt; stroke-linejoin: miter; stroke-miterlimit: 10; fill: rgb(0,0,0); fill-rule: nonzero; opacity: 1;" transform=" matrix(1 0 0 1 0 0) " stroke-linecap="round" />
	<path d="M 65.222 69.973 c -0.403 0 -0.77 -0.242 -0.925 -0.619 l -3.649 -8.854 l -3.648 8.854 c -0.164 0.398 -0.566 0.64 -0.992 0.617 c -0.429 -0.029 -0.791 -0.329 -0.899 -0.744 L 50.932 53.31 c -0.141 -0.534 0.179 -1.081 0.713 -1.221 c 0.533 -0.141 1.081 0.179 1.221 0.713 l 3.42 13.034 l 3.438 -8.343 c 0.154 -0.375 0.52 -0.619 0.925 -0.619 s 0.771 0.244 0.925 0.619 l 3.438 8.343 l 3.42 -13.034 c 0.14 -0.534 0.687 -0.854 1.221 -0.713 c 0.534 0.14 0.854 0.687 0.713 1.221 l -4.176 15.917 c -0.108 0.415 -0.471 0.715 -0.899 0.744 C 65.267 69.972 65.244 69.973 65.222 69.973 z" style="stroke: none; stroke-width: 1; stroke-dasharray: none; stroke-linecap: butt; stroke-linejoin: miter; stroke-miterlimit: 10; fill: rgb(0,0,0); fill-rule: nonzero; opacity: 1;" transform=" matrix(1 0 0 1 0 0) " stroke-linecap="round" />
	<path d="M 45.748 19.626 l 3.317 6.721 c 0.19 0.384 0.556 0.65 0.98 0.712 l 7.417 1.078 c 1.067 0.155 1.493 1.467 0.721 2.219 l -5.367 5.231 c -0.307 0.299 -0.447 0.73 -0.374 1.152 l 1.267 7.387 c 0.182 1.063 -0.933 1.873 -1.888 1.372 l -6.634 -3.487 c -0.379 -0.199 -0.832 -0.199 -1.211 0 l -6.634 3.487 c -0.955 0.502 -2.07 -0.309 -1.888 -1.372 l 1.267 -7.387 c 0.072 -0.422 -0.068 -0.853 -0.374 -1.152 l -5.367 -5.231 c -0.772 -0.753 -0.346 -2.064 0.721 -2.219 l 7.417 -1.078 c 0.424 -0.062 0.79 -0.328 0.98 -0.712 l 3.317 -6.721 C 43.892 18.659 45.271 18.659 45.748 19.626 z" style="stroke: none; stroke-width: 1; stroke-dasharray: none; stroke-linecap: butt; stroke-linejoin: miter; stroke-miterlimit: 10; fill: #f2cb32; fill-rule: nonzero; opacity: 1;" transform=" matrix(1 0 0 1 0 0) " stroke-linecap="round" />
	<path d="M 36.735 46.648 c -0.475 0 -0.947 -0.148 -1.35 -0.441 c -0.714 -0.519 -1.065 -1.381 -0.916 -2.251 l 1.267 -7.387 c 0.017 -0.098 -0.016 -0.197 -0.086 -0.266 l -5.367 -5.231 c -0.631 -0.616 -0.854 -1.52 -0.582 -2.358 c 0.272 -0.839 0.984 -1.439 1.857 -1.567 l 7.417 -1.078 c 0.098 -0.014 0.183 -0.076 0.227 -0.165 l 3.317 -6.72 c 0.39 -0.791 1.18 -1.283 2.063 -1.283 h 0 c 0.882 0 1.673 0.492 2.064 1.283 v 0 l 3.316 6.72 c 0.044 0.089 0.129 0.15 0.227 0.165 l 7.416 1.078 c 0.874 0.127 1.586 0.728 1.858 1.567 c 0.272 0.839 0.049 1.743 -0.582 2.358 l -5.367 5.231 c -0.071 0.069 -0.104 0.168 -0.087 0.266 l 1.268 7.387 c 0.149 0.87 -0.202 1.732 -0.916 2.251 c -0.715 0.52 -1.642 0.586 -2.423 0.175 l -6.634 -3.487 c -0.088 -0.046 -0.192 -0.047 -0.28 0 l -6.634 3.487 C 37.468 46.561 37.101 46.648 36.735 46.648 z M 44.582 40.86 c 0.368 0 0.735 0.088 1.071 0.264 l 6.634 3.487 c 0.134 0.071 0.247 0.029 0.317 -0.023 c 0.069 -0.05 0.146 -0.142 0.12 -0.295 l -1.268 -7.386 c -0.128 -0.747 0.119 -1.508 0.661 -2.037 l 5.367 -5.231 c 0.111 -0.107 0.103 -0.227 0.076 -0.308 c -0.026 -0.082 -0.09 -0.184 -0.243 -0.206 l -7.416 -1.078 c -0.75 -0.109 -1.397 -0.58 -1.732 -1.259 l -3.317 -6.72 c -0.138 -0.277 -0.403 -0.277 -0.54 0 l -3.317 6.72 c -0.334 0.68 -0.982 1.15 -1.733 1.259 l -7.417 1.078 c -0.153 0.022 -0.216 0.124 -0.243 0.205 c -0.026 0.081 -0.035 0.201 0.076 0.308 l 5.367 5.231 c 0.542 0.529 0.79 1.29 0.662 2.037 l -1.267 7.387 c -0.026 0.152 0.051 0.245 0.12 0.295 c 0.07 0.05 0.181 0.094 0.316 0.023 l 6.634 -3.488 C 43.846 40.948 44.214 40.86 44.582 40.86 z" style="stroke: none; stroke-width: 1; stroke-dasharray: none; stroke-linecap: butt; stroke-linejoin: miter; stroke-miterlimit: 10; fill: rgb(0,0,0); fill-rule: nonzero; opacity: 1;" transform=" matrix(1 0 0 1 0 0) " stroke-linecap="round" />
	<path d="M 35.861 22.807 c -0.298 0 -0.593 -0.132 -0.79 -0.386 l -5.274 -6.78 c -0.339 -0.436 -0.261 -1.064 0.175 -1.403 c 0.436 -0.339 1.064 -0.262 1.403 0.175 l 5.274 6.78 c 0.339 0.436 0.261 1.064 -0.175 1.403 C 36.292 22.738 36.076 22.807 35.861 22.807 z" style="stroke: none; stroke-width: 1; stroke-dasharray: none; stroke-linecap: butt; stroke-linejoin: miter; stroke-miterlimit: 10; fill: rgb(0,0,0); fill-rule: nonzero; opacity: 1;" transform=" matrix(1 0 0 1 0 0) " stroke-linecap="round" />
	<path d="M 54.004 22.807 c -0.214 0 -0.431 -0.069 -0.613 -0.211 c -0.436 -0.339 -0.514 -0.967 -0.175 -1.403 l 5.274 -6.78 c 0.34 -0.434 0.967 -0.514 1.403 -0.175 c 0.436 0.339 0.514 0.967 0.175 1.403 l -5.274 6.78 C 54.597 22.674 54.302 22.807 54.004 22.807 z" style="stroke: none; stroke-width: 1; stroke-dasharray: none; stroke-linecap: butt; stroke-linejoin: miter; stroke-miterlimit: 10; fill: rgb(0,0,0); fill-rule: nonzero; opacity: 1;" transform=" matrix(1 0 0 1 0 0) " stroke-linecap="round" />
	<path d="M 23.591 41.638 c -0.389 0 -0.758 -0.228 -0.92 -0.608 c -0.217 -0.508 0.02 -1.095 0.528 -1.312 l 7.692 -3.279 c 0.508 -0.217 1.095 0.02 1.312 0.528 c 0.217 0.508 -0.02 1.095 -0.528 1.312 l -7.692 3.279 C 23.854 41.612 23.722 41.638 23.591 41.638 z" style="stroke: none; stroke-width: 1; stroke-dasharray: none; stroke-linecap: butt; stroke-linejoin: miter; stroke-miterlimit: 10; fill: rgb(0,0,0); fill-rule: nonzero; opacity: 1;" transform=" matrix(1 0 0 1 0 0) " stroke-linecap="round" />
	<path d="M 66.41 41.638 c -0.131 0 -0.265 -0.026 -0.393 -0.081 l -7.692 -3.279 c -0.508 -0.217 -0.744 -0.804 -0.527 -1.312 c 0.217 -0.508 0.805 -0.745 1.313 -0.528 l 7.692 3.279 c 0.508 0.217 0.744 0.804 0.527 1.312 C 67.168 41.41 66.799 41.638 66.41 41.638 z" style="stroke: none; stroke-width: 1; stroke-dasharray: none; stroke-linecap: butt; stroke-linejoin: miter; stroke-miterlimit: 10; fill: rgb(0,0,0); fill-rule: nonzero; opacity: 1;" transform=" matrix(1 0 0 1 0 0) " stroke-linecap="round" />
</g>
</svg>