<svg xmlns="http://www.w3.org/2000/svg" xmlns:xlink="http://www.w3.org/1999/xlink" version="1.1" width="256" height="256" viewBox="0 0 256 256" xml:space="preserve">

<defs>
</defs>
<g style="stroke: none; stroke-width: 0; stroke-dasharray: none; stroke-linecap: butt; stroke-linejoin: miter; stroke-miterlimit: 10; fill: none; fill-rule: nonzero; opacity: 1;" transform="translate(1.4065934065934016 1.4065934065934016) scale(2.81 2.81)" >
	<path d="M 82.302 75.38 H 7.698 C 3.454 75.38 0 71.927 0 67.682 v -3.233 c 0 -0.553 0.448 -1 1 -1 h 32.003 c 0.552 0 1 0.447 1 1 v 2.857 h 21.994 v -2.857 c 0 -0.553 0.447 -1 1 -1 H 89 c 0.553 0 1 0.447 1 1 v 3.233 C 90 71.927 86.547 75.38 82.302 75.38 z M 2 65.448 v 2.233 c 0 3.142 2.556 5.698 5.698 5.698 h 74.604 c 3.142 0 5.698 -2.557 5.698 -5.698 v -2.233 H 57.997 v 2.857 c 0 0.553 -0.447 1 -1 1 H 33.003 c -0.552 0 -1 -0.447 -1 -1 v -2.857 H 2 z" style="stroke: none; stroke-width: 1; stroke-dasharray: none; stroke-linecap: butt; stroke-linejoin: miter; stroke-miterlimit: 10; fill: rgb(0,0,0); fill-rule: nonzero; opacity: 1;" transform=" matrix(1 0 0 1 0 0) " stroke-linecap="round" />
	<path d="M 83.914 65.448 c -0.553 0 -1 -0.447 -1 -1 V 17.907 c 0 -0.71 -0.577 -1.288 -1.287 -1.288 H 8.374 c -0.71 0 -1.288 0.578 -1.288 1.288 v 46.541 c 0 0.553 -0.448 1 -1 1 s -1 -0.447 -1 -1 V 17.907 c 0 -1.813 1.475 -3.288 3.288 -3.288 h 73.253 c 1.813 0 3.287 1.475 3.287 3.288 v 46.541 C 84.914 65.001 84.467 65.448 83.914 65.448 z" style="stroke: none; stroke-width: 1; stroke-dasharray: none; stroke-linecap: butt; stroke-linejoin: miter; stroke-miterlimit: 10; fill: rgb(0,0,0); fill-rule: nonzero; opacity: 1;" transform=" matrix(1 0 0 1 0 0) " stroke-linecap="round" />
	<path d="M 78.5 60.448 h -67 c -0.552 0 -1 -0.447 -1 -1 v -36.31 c 0 -1.712 1.393 -3.104 3.104 -3.104 h 62.791 c 1.712 0 3.104 1.393 3.104 3.104 v 36.31 C 79.5 60.001 79.053 60.448 78.5 60.448 z M 12.5 58.448 h 65 v -35.31 c 0 -0.609 -0.495 -1.104 -1.104 -1.104 H 13.604 c -0.609 0 -1.104 0.496 -1.104 1.104 V 58.448 z" style="stroke: none; stroke-width: 1; stroke-dasharray: none; stroke-linecap: butt; stroke-linejoin: miter; stroke-miterlimit: 10; fill: rgb(0,0,0); fill-rule: nonzero; opacity: 1;" transform=" matrix(1 0 0 1 0 0) " stroke-linecap="round" />
	<path d="M 45.532 42.549 c -0.308 0 -0.612 -0.142 -0.808 -0.409 c -0.327 -0.445 -0.23 -1.071 0.216 -1.397 l 3.226 -2.362 c 0.563 -0.413 0.742 -1.17 0.389 -1.653 c -0.354 -0.483 -1.13 -0.54 -1.693 -0.129 l -3.226 2.362 c -0.446 0.326 -1.072 0.229 -1.397 -0.216 c -0.327 -0.445 -0.23 -1.071 0.216 -1.397 l 3.226 -2.362 c 1.463 -1.072 3.475 -0.82 4.488 0.56 c 1.011 1.381 0.643 3.376 -0.82 4.448 l -3.226 2.362 C 45.944 42.486 45.737 42.549 45.532 42.549 z" style="stroke: none; stroke-width: 1; stroke-dasharray: none; stroke-linecap: butt; stroke-linejoin: miter; stroke-miterlimit: 10; fill: rgb(0,0,0); fill-rule: nonzero; opacity: 1;" transform=" matrix(1 0 0 1 0 0) " stroke-linecap="round" />
	<path d="M 48.073 45.904 c -0.309 0 -0.612 -0.142 -0.808 -0.409 c -0.326 -0.446 -0.229 -1.071 0.216 -1.397 l 2.785 -2.039 c 0.563 -0.413 0.741 -1.17 0.388 -1.653 c -0.163 -0.223 -0.421 -0.365 -0.725 -0.398 c -0.336 -0.036 -0.679 0.059 -0.968 0.27 l -2.84 2.08 c -0.446 0.327 -1.071 0.23 -1.397 -0.216 c -0.327 -0.446 -0.23 -1.071 0.216 -1.397 l 2.84 -2.08 c 0.694 -0.508 1.537 -0.734 2.371 -0.644 c 0.867 0.097 1.618 0.524 2.116 1.205 c 1.011 1.381 0.644 3.376 -0.819 4.448 l -2.785 2.039 C 48.485 45.841 48.278 45.904 48.073 45.904 z" style="stroke: none; stroke-width: 1; stroke-dasharray: none; stroke-linecap: butt; stroke-linejoin: miter; stroke-miterlimit: 10; fill: rgb(0,0,0); fill-rule: nonzero; opacity: 1;" transform=" matrix(1 0 0 1 0 0) " stroke-linecap="round" />
	<path d="M 41.1 53.894 c -2.994 0 -5.864 -1.291 -7.677 -3.767 c -1.186 -1.619 -1.788 -3.566 -1.741 -5.633 l 0.204 -10.754 c 0.032 -1.704 1.471 -3.175 3.207 -3.28 c 0.868 -0.051 1.723 0.252 2.334 0.838 c 0.603 0.579 0.926 1.363 0.911 2.21 l -0.032 1.661 l 10.401 -7.617 c 1.464 -1.074 3.478 -0.819 4.488 0.561 c 0.498 0.68 0.679 1.526 0.51 2.381 c -0.163 0.824 -0.636 1.558 -1.33 2.066 l -5.514 4.038 c -0.444 0.327 -1.071 0.23 -1.397 -0.216 c -0.327 -0.445 -0.23 -1.071 0.216 -1.397 l 5.514 -4.038 c 0.289 -0.211 0.484 -0.51 0.55 -0.841 c 0.06 -0.3 0.002 -0.588 -0.161 -0.811 c -0.354 -0.483 -1.128 -0.542 -1.693 -0.128 l -12.03 8.81 c -0.308 0.224 -0.714 0.255 -1.052 0.081 c -0.337 -0.175 -0.546 -0.526 -0.539 -0.907 l 0.07 -3.68 c 0.005 -0.282 -0.099 -0.541 -0.295 -0.729 c -0.213 -0.204 -0.507 -0.308 -0.83 -0.286 c -0.707 0.042 -1.315 0.648 -1.328 1.322 l -0.205 10.758 c -0.037 1.625 0.432 3.149 1.355 4.41 c 2.493 3.403 7.565 3.941 11.307 1.202 l 4.796 -3.513 c 0.288 -0.211 0.483 -0.51 0.549 -0.841 c 0.06 -0.3 0.002 -0.588 -0.161 -0.812 s -0.421 -0.365 -0.725 -0.398 c -0.334 -0.037 -0.679 0.059 -0.968 0.27 c -0.444 0.326 -1.07 0.23 -1.397 -0.216 c -0.326 -0.445 -0.229 -1.071 0.216 -1.397 c 0.695 -0.508 1.539 -0.735 2.371 -0.644 c 0.867 0.097 1.618 0.524 2.116 1.205 s 0.679 1.526 0.51 2.381 c -0.163 0.825 -0.635 1.559 -1.329 2.066 l -4.796 3.513 C 45.563 53.197 43.298 53.894 41.1 53.894 z" style="stroke: none; stroke-width: 1; stroke-dasharray: none; stroke-linecap: butt; stroke-linejoin: miter; stroke-miterlimit: 10; fill: rgb(0,0,0); fill-rule: nonzero; opacity: 1;" transform=" matrix(1 0 0 1 0 0) " stroke-linecap="round" />
</g>
</svg>